<?xml version="1.0" encoding="iso-8859-1"?>
<!-- Generator: Adobe Illustrator 19.0.0, SVG Export Plug-In . SVG Version: 6.00 Build 0)  -->
<svg version="1.1" id="Capa_1" xmlns="http://www.w3.org/2000/svg" xmlns:xlink="http://www.w3.org/1999/xlink" x="0px" y="0px"
	 viewBox="0 0 512 512" style="enable-background:new 0 0 512 512;" xml:space="preserve">
<path style="fill:#BF7341;" d="M375.38,452.244H102.465c-24.735-0.017-45.921-17.705-50.341-42.039l-26.51-145.673h426.617
	l-26.45,145.673C421.353,434.556,400.133,452.253,375.38,452.244z"/>
<path style="fill:#B56D3E;" d="M114.453,452.244H375.38c24.735-0.017,45.921-17.705,50.341-42.039l26.51-145.673h-56.177
	C321.686,371.861,191.833,427.347,114.453,452.244z"/>
<path style="fill:#C96E23;" d="M196.261,230.403H93.873V59.756c0-28.276,22.918-51.194,51.194-51.194l0,0
	c28.276,0,51.194,22.918,51.194,51.194V230.403z"/>
<rect x="121.983" y="119.458" transform="matrix(-0.7809 0.6246 -0.6246 -0.7809 345.8349 134.686)" style="fill:#B5611D;" width="54.631" height="17.064"/>
<path style="fill:#C96E23;" d="M426.634,230.403H324.246v-17.065c0-28.276,22.918-51.194,51.194-51.194l0,0
	c28.276,0,51.194,22.918,51.194,51.194V230.403z"/>
<g>
	<rect x="349.826" y="187.707" style="fill:#B5611D;" width="17.065" height="17.065"/>
	<rect x="392.488" y="196.24" style="fill:#B5611D;" width="17.065" height="17.065"/>
</g>
<path style="fill:#D68033;" d="M361.089,230.403h-110.92l89.436-193.684c7.892-17.15,25.034-28.14,43.907-28.157h3.259
	c10.99,0,21.655,3.737,30.23,10.606l0,0c17.295,13.831,22.986,37.645,13.822,57.807L361.089,230.403z"/>
<g>
	
		<rect x="342.829" y="68.266" transform="matrix(-0.9615 0.2749 -0.2749 -0.9615 754.4824 47.8599)" style="fill:#C96E23;" width="62.117" height="17.065"/>
	<polygon style="fill:#C96E23;" points="336.865,149.977 331.712,133.706 375.577,119.875 380.73,136.155 	"/>
	
		<rect x="288.781" y="187.706" transform="matrix(-0.9534 0.3017 -0.3017 -0.9534 678.5369 287.6781)" style="fill:#C96E23;" width="56.544" height="17.065"/>
</g>
<path style="fill:#BF7341;" d="M25.614,230.403h426.617c9.428,0,17.065,7.636,17.065,17.065l0,0c0,9.428-7.636,17.065-17.065,17.065
	H25.614c-9.428,0-17.065-7.636-17.065-17.065l0,0C8.55,238.04,16.195,230.403,25.614,230.403z"/>
<path style="fill:#965735;" d="M409.569,230.403v-17.065c0-94.248-76.399-170.647-170.647-170.647l0,0
	c-94.248,0-170.647,76.399-170.647,170.647v17.065H34.147v-17.065c0-113.096,91.68-204.776,204.776-204.776l0,0
	c113.096,0,204.776,91.68,204.776,204.776v17.065H409.569z"/>
<path style="fill:#F09E3E;" d="M324.246,230.403c-2.355-85.545-39.599-153.582-85.323-153.582s-82.968,68.037-85.323,153.582
	H324.246z"/>
<path style="fill:#D68033;" d="M240.672,181.47l-44.411,14.804l0,0c0.009-20.392,13.072-38.489,32.423-44.923l44.368-14.804l0,0
	C273.052,156.923,260.006,175.02,240.672,181.47z"/>
<path style="fill:#EB9634;" d="M316.473,170.882c-23.635,25.46-52.303,45.733-84.189,59.522h91.962
	C323.76,210.344,321.157,190.387,316.473,170.882z"/>
<g>
	<rect x="341.294" y="298.628" style="fill:#965735;" width="51.194" height="17.065"/>
	<rect x="255.97" y="298.628" style="fill:#965735;" width="51.194" height="17.065"/>
	<rect x="170.647" y="298.628" style="fill:#965735;" width="51.194" height="17.065"/>
	<rect x="85.324" y="298.628" style="fill:#965735;" width="51.194" height="17.065"/>
	<rect x="85.324" y="349.822" style="fill:#965735;" width="51.194" height="17.065"/>
	<rect x="85.324" y="401.016" style="fill:#965735;" width="51.194" height="17.065"/>
</g>
<path style="fill:#D68033;" d="M153.599,230.403H51.211v-17.065c0-28.276,22.918-51.194,51.194-51.194l0,0
	c28.276,0,51.194,22.918,51.194,51.194V230.403z"/>
<path style="fill:#D97A27;" d="M153.599,213.339c0.009-15.111-6.672-29.445-18.251-39.155
	c-11.536,24.206-30.699,43.959-54.556,56.22h72.806V213.339z"/>
<g>
	<rect x="76.791" y="187.707" style="fill:#C96E23;" width="17.065" height="17.065"/>
	<rect x="110.921" y="196.24" style="fill:#C96E23;" width="17.065" height="17.065"/>
</g>
<path style="fill:#965735;" d="M443.699,273.065H51.211c-4.71,0-8.532-3.822-8.532-8.532c0-4.71,3.822-8.532,8.532-8.532h392.488
	c4.71,0,8.532,3.823,8.532,8.532C452.231,269.242,448.409,273.065,443.699,273.065z"/>
<path style="fill:#F09E3E;" d="M503.425,375.453L503.425,375.453c0,14.138-11.459,25.597-25.597,25.597l0,0v85.323
	c0,9.428-7.636,17.065-17.065,17.065h-255.97c-9.428,0-17.065-7.636-17.065-17.065V401.05l0,0
	c-14.138,0-25.597-11.459-25.597-25.597l0,0c0-14.138,11.459-25.597,25.597-25.597h290.099
	C491.966,349.856,503.425,361.315,503.425,375.453z"/>
<path style="fill:#F09235;" d="M446.907,401.05c-0.145,0.162-0.316,0.299-0.461,0.461c-23.498,49.488-65.699,82.09-101.595,101.927
	h115.912c9.428,0,17.065-7.636,17.065-17.065V401.05H446.907z"/>
<path style="fill:#F0DBC2;" d="M349.843,375.453L349.843,375.453c0,14.138-11.459,25.597-25.597,25.597l0,0v85.323
	c0,9.428-7.636,17.065-17.065,17.065H204.793c-9.428,0-17.065-7.636-17.065-17.065V401.05l0,0
	c-14.138,0-25.597-11.459-25.597-25.597l0,0c0-14.138,11.459-25.597,25.597-25.597h136.517
	C338.384,349.856,349.843,361.315,349.843,375.453z"/>
<g>
	<rect x="426.617" y="375.419" style="fill:#D68033;" width="17.065" height="17.065"/>
	<rect x="383.955" y="401.016" style="fill:#D68033;" width="17.065" height="17.065"/>
	<rect x="435.149" y="443.678" style="fill:#D68033;" width="17.065" height="17.065"/>
	<rect x="349.826" y="460.742" style="fill:#D68033;" width="17.065" height="17.065"/>
</g>
<path d="M18.276,271.862l25.426,139.871c5.162,28.396,29.897,49.044,58.762,49.044h59.667v-17.065h-59.667
	c-20.606,0-38.259-14.718-41.971-34.983L35.853,273.065h406.139l-9.036,49.667l16.792,3.055l9.804-53.924
	c13.515-4.002,21.228-18.199,17.227-31.715c-3.217-10.87-13.217-18.31-24.548-18.276v-8.532
	c0.034-36.262-9.241-71.936-26.928-103.591l13.276-29.24c13.012-28.617,0.358-62.363-28.259-75.375
	c-7.398-3.362-15.426-5.102-23.549-5.102h-3.259c-18.421,0.068-35.682,9.036-46.331,24.07
	C287.702-1.676,230.075-6.983,176.713,9.305c-9.454-6.032-20.435-9.249-31.646-9.275c-32.969,0.034-59.692,26.757-59.726,59.726
	v5.776c-38.336,39.65-59.752,92.653-59.726,147.806v8.532C11.519,221.811,0.051,233.202,0,247.289
	C-0.042,258.628,7.406,268.637,18.276,271.862z M383.512,17.095h3.259c22.005,0,39.846,17.833,39.846,39.846
	c0,5.683-1.212,11.297-3.558,16.467l-8.592,18.942c-3.413-4.949-7.022-9.778-10.845-14.411l3.114-0.956l-5-16.322l-10.734,3.293
	c-11.715-11.92-24.786-22.432-38.933-31.322C359.596,22.88,371.2,17.146,383.512,17.095z M145.067,17.095
	c2.79,0.026,5.572,0.333,8.302,0.904c-17.662,7.756-34.189,17.875-49.129,30.076C109.419,29.791,126.074,17.154,145.067,17.095z
	 M238.923,17.095c108.335,0.119,196.124,87.909,196.244,196.244v8.532h-17.065v-8.532c0.017-98.924-80.161-179.136-179.085-179.154
	c-80.69-0.017-151.423,53.916-172.771,131.731c-14.829,11.254-23.549,28.805-23.566,47.423
	C42.798,105.003,130.596,17.214,238.923,17.095z M374.339,221.871l21.698-47.781c1.877,7.287,3.242,14.701,4.087,22.184h-7.619
	v17.065h8.532v8.532H374.339z M238.923,68.289c-12.261,0.171-24.172,4.104-34.129,11.263V59.756c0-1.587-0.264-3.148-0.392-4.727
	c11.339-2.491,22.909-3.763,34.522-3.805c26.442-0.009,52.474,6.485,75.81,18.925l-16.408,35.563
	C282.233,82.188,261.644,68.289,238.923,68.289z M187.729,59.518c0,0.077,0,0.162,0,0.239v35.179
	c-5.273,6.169-9.957,12.816-13.985,19.863l-8.413-10.512l-42.662,34.129l10.665,13.328l36.203-28.967
	c-8.694,17.67-14.983,36.425-18.694,55.759c-14.258-20.102-39.488-29.249-63.318-22.969
	C104.709,110.055,141.543,74.756,187.729,59.518z M102.405,170.677c23.549,0.026,42.636,19.112,42.662,42.662v8.532H59.744v-8.532
	C59.769,189.789,78.856,170.702,102.405,170.677z M238.923,85.353c38.66,0,72.047,60.469,76.424,136.517H162.499
	C166.876,145.822,200.263,85.353,238.923,85.353z M332.326,221.871c-0.375-7.21-0.964-14.275-1.792-21.152l15.947-4.804
	l-4.923-16.348l-13.583,4.096c-3.558-20.768-10.017-40.938-19.172-59.914l20.665-44.786c16.604,11.271,30.998,25.495,42.457,41.971
	l-40.051,12.287l5.009,16.322l44.368-13.652c2.526,4.625,4.829,9.377,6.911,14.258l-32.568,71.723H332.326z M25.614,238.936h426.617
	c4.71,0,8.532,3.822,8.532,8.532c0,4.71-3.823,8.532-8.532,8.532H25.614c-4.71,0-8.532-3.822-8.532-8.532
	C17.082,242.758,20.904,238.936,25.614,238.936z"/>
<path d="M278.043,129.628c-2.218-1.604-5.077-2.039-7.679-1.177l-44.368,14.804c-22.85,7.577-38.276,28.942-38.268,53.02
	c0,4.71,3.822,8.532,8.532,8.532c0.913,0,1.826-0.145,2.696-0.435l44.411-14.804c22.833-7.594,38.233-28.959,38.216-53.02
	C281.584,133.8,280.27,131.232,278.043,129.628z M237.941,173.373l-31.117,10.375c3.908-11.485,12.969-20.478,24.479-24.3
	l31.117-10.375c-3.899,11.476-12.944,20.469-24.445,24.3H237.941z"/>
<rect x="341.294" y="298.628" width="51.194" height="17.065"/>
<rect x="255.97" y="298.628" width="51.194" height="17.065"/>
<rect x="170.647" y="298.628" width="51.194" height="17.065"/>
<rect x="85.324" y="298.628" width="51.194" height="17.065"/>
<rect x="85.324" y="349.822" width="51.194" height="17.065"/>
<rect x="85.324" y="401.016" width="51.194" height="17.065"/>
<rect x="76.791" y="187.707" width="17.065" height="17.065"/>
<rect x="110.921" y="196.24" width="17.065" height="17.065"/>
<path d="M477.828,341.324H187.729c-18.848-0.026-34.146,15.239-34.163,34.095c-0.017,15.589,10.537,29.206,25.631,33.088v77.866
	c0,14.138,11.459,25.597,25.597,25.597h255.97c14.138,0,25.597-11.459,25.597-25.597v-77.866
	c18.259-4.693,29.249-23.293,24.556-41.552C507.034,351.852,493.417,341.307,477.828,341.324z M204.793,494.906
	c-4.71,0-8.532-3.823-8.532-8.532V401.05c0-4.71-3.822-8.532-8.532-8.532c-9.428,0-17.065-7.636-17.065-17.065
	c0-9.428,7.636-17.065,17.065-17.065h136.517c9.428,0,17.065,7.636,17.065,17.065c0,9.428-7.636,17.065-17.065,17.065
	c-4.71,0-8.532,3.823-8.532,8.532v85.323c0,4.71-3.823,8.532-8.532,8.532H204.793z M477.828,392.518
	c-4.71,0-8.532,3.823-8.532,8.532v85.323c0,4.71-3.823,8.532-8.532,8.532H331.208c1.007-2.73,1.544-5.623,1.57-8.532v-77.866
	c15.06-3.916,25.571-17.5,25.597-33.054c-0.034-6.007-1.672-11.903-4.744-17.065h124.197c9.428,0,17.065,7.636,17.065,17.065
	C494.893,384.881,487.256,392.518,477.828,392.518z"/>
<rect x="426.617" y="375.419" width="17.065" height="17.065"/>
<rect x="383.955" y="401.016" width="17.065" height="17.065"/>
<rect x="435.149" y="443.678" width="17.065" height="17.065"/>
<rect x="349.826" y="460.742" width="17.065" height="17.065"/>
<g>
</g>
<g>
</g>
<g>
</g>
<g>
</g>
<g>
</g>
<g>
</g>
<g>
</g>
<g>
</g>
<g>
</g>
<g>
</g>
<g>
</g>
<g>
</g>
<g>
</g>
<g>
</g>
<g>
</g>
</svg>
