<svg id="Layer_1_copy" height="512" viewBox="0 0 512 512" width="512" xmlns="http://www.w3.org/2000/svg" data-name="Layer 1 copy"><path d="m8 72h64v384h-64z" fill="#631c18"/><path d="m72 72h416v384h-416z" fill="#fd7c26"/><path d="m104 456 8 48h32l8-48z" fill="#af4732"/><path d="m16 456 8 48h32l8-48z" fill="#af4732"/><path d="m120 192h328v224h-328z" fill="#e8c28b"/><path d="m328 456 8 48h32l8-48z" fill="#af4732"/><path d="m408 456 8 48h32l8-48z" fill="#af4732"/><ellipse cx="151.904" cy="111.941" fill="#631c18" rx="16.096" ry="15.941"/><path d="m345.39 128h-137.39v-24h120z" fill="#af4732"/><path d="m183.869 336c-13.992 0-23.932-15.643-19.808-31.07a120.04 120.04 0 0 1 231.877 0c4.124 15.427-5.816 31.07-19.808 31.07z" fill="#fd7c26"/><path d="m395.939 304.93a119.6 119.6 0 0 0 -22.639-44.374c-.591.459-45.51 35.444-77.3 35.444-31.833 0-87.888-55.052-88.472-55.626a120.105 120.105 0 0 0 -43.467 64.556c-4.124 15.427 5.816 31.07 19.808 31.07h192.262c13.992 0 23.932-15.643 19.808-31.07z" fill="#a0470a"/><path d="m296 96a119.939 119.939 0 0 0 192 95.939v-119.939h-189.587a120.093 120.093 0 0 0 -2.413 24z" fill="#3a0d0c" opacity=".2"/><circle cx="416" cy="96" fill="#ffb656" r="88"/><path d="m262.66 217.269a120.115 120.115 0 0 0 -98.6 87.66c-4.124 15.427 5.816 31.07 19.808 31.07h29.684c-11.652-47.917 29.824-98.411 49.108-118.73z" fill="#3a0d0c" opacity=".2"/><path d="m416 0a96.162 96.162 0 0 0 -90.509 64h-317.491a8 8 0 0 0 -8 8v384a8 8 0 0 0 8 8h1.222l6.886 41.315a8 8 0 0 0 7.892 6.685h32a8 8 0 0 0 7.892-6.685l6.886-41.315h26.444l6.886 41.315a8 8 0 0 0 7.892 6.685h32a8 8 0 0 0 7.892-6.685l6.886-41.315h162.444l6.886 41.315a8 8 0 0 0 7.892 6.685h32a8 8 0 0 0 7.892-6.685l6.886-41.315h18.445l6.886 41.315a8 8 0 0 0 7.891 6.685h32a8 8 0 0 0 7.892-6.685l6.886-41.315h25.222a8 8 0 0 0 8-8v-307a95.952 95.952 0 0 0 -80-149zm-92.962 120h-107.038v-8h105.341q.684 4.058 1.697 8zm-3.038-24h-120v40h128.741a96.1 96.1 0 0 0 9.333 16h-258.074v-72h241.341a96.214 96.214 0 0 0 -1.341 16zm-304-16h48v368h-48zm33.223 416h-18.446l-5.333-32h29.112zm88 0h-18.446l-5.333-32h29.112zm224 0h-18.446l-5.333-32h29.112zm80 0h-18.446l-5.333-32h29.112zm-361.223-48v-280h272.577a95.8 95.8 0 0 0 127.423-.512v280.512zm336-272a80 80 0 1 1 80-80 80.09 80.09 0 0 1 -80 80z"/><path d="m424 24h-16v72a8 8 0 0 0 2.879 6.146l48 40 10.242-12.292-45.121-37.601z"/><path d="m151.9 135.881a23.941 23.941 0 1 0 -24.1-23.94 24.046 24.046 0 0 0 24.1 23.94zm0-31.881a7.942 7.942 0 1 1 -8.1 7.941 8.029 8.029 0 0 1 8.1-7.941z"/><path d="m440 328h-38.959a35.141 35.141 0 0 0 2.626-25.136 128.04 128.04 0 0 0 -247.334 0 35.143 35.143 0 0 0 2.626 25.136h-30.959v-136h-16v224a8 8 0 0 0 8 8h328a8 8 0 0 0 8-8v-192h-16zm-78.439-68.766c-4.031 2.834-9.6 6.573-16.015 10.409-25.591-15.312-49.5-14.28-65.393-10.511a94.294 94.294 0 0 0 -25.417 10.133c-4.313-3.013-8.578-6.2-12.679-9.407 14.91-9.057 47.153-25.707 83.332-26.231a112.558 112.558 0 0 1 36.172 25.607zm-33.061 19.566c-12.8 6.042-23.868 9.2-32.5 9.2-7.087 0-16.059-3.506-25.544-8.793 12.391-5.413 33.917-10.998 58.044-.407zm-45.006-54.73a207.526 207.526 0 0 0 -54.5 25.064c-3.209-2.757-6.17-5.391-8.8-7.8a111.811 111.811 0 0 1 59.806-17.334c1.169 0 2.332.037 3.495.073zm-108.772 99.03a18.64 18.64 0 0 1 -2.932-16.1 111.562 111.562 0 0 1 35.316-56c5.791 5.373 15.9 14.4 27.78 23.523 25.478 19.561 46.041 29.477 61.114 29.477 27.138 0 61.491-22.224 75.694-32.318a111.289 111.289 0 0 1 16.516 35.318 18.638 18.638 0 0 1 -2.932 16.1c-1.405 1.83-4.463 4.9-9.147 4.9h-192.262c-4.684 0-7.742-3.071-9.147-4.9zm-46.722 84.9v-64h312v64z"/><path d="m24 176h24v16h-24z"/><path d="m24 208h24v16h-24z"/><path d="m24 240h24v16h-24z"/><path d="m24 272h24v16h-24z"/><path d="m24 304h24v16h-24z"/><path d="m24 336h24v16h-24z"/><path d="m24 368h24v16h-24z"/></svg>