<svg height="512" viewBox="0 0 60 60" width="512" xmlns="http://www.w3.org/2000/svg"><g id="035---Mixing-Dough" fill="none"><g id="Icons" transform="translate(1 2)"><path id="Shape" d="m54.59.59-9.85 9.84 2.82 2.83 9.85-9.85c.3755878-.37335029.5877672-.88042315.59-1.41-.0033854-.80631139-.4906258-1.5317303-1.2357575-1.83983461s-1.6024026-.13862704-2.1742425.42983461z" fill="#91562d"/><path id="Shape" d="m38 51.58v3.42c0 1.1045695-.8954305 2-2 2h-14c-1.1045695 0-2-.8954305-2-2v-3.43c5.8508582 1.8885273 12.1470471 1.8920252 18 .01z" fill="#f57c00"/><path id="Shape" d="m58 23v1c.0000002 10.3607022-5.5273686 19.9343859-14.4999999 25.1147371-8.9726313 5.1803511-20.0273689 5.1803511-29.0000002 0-8.97263131-5.1803512-14.50000005-14.7540349-14.4999999-25.1147371v-1c0-1.1045695.8954305-2 2-2h54c1.1045695 0 2 .8954305 2 2z" fill="#f57c00"/><path id="Shape" d="m55 23v1c.0209501 15.4446302-12.0663057 28.1958276-27.49 29-15.4315765-.7938988-27.53040812-13.5480288-27.51-29v-1c0-1.1045695.8954305-2 2-2h51c1.1045695 0 2 .8954305 2 2z" fill="#ff9801"/><path id="Shape" d="m16 21v2c0 1.1045695.8954305 2 2 2h14c1.1045695 0 2 .8954305 2 2v12c0 1.1045695.8954305 2 2 2s2-.8954305 2-2v-12c0-1.1045695.8954305-2 2-2s2 .8954305 2 2v6c0 1.1045695.8954305 2 2 2s2-.8954305 2-2v-6c0-1.1045695.8954305-2 2-2s2-.8954305 2-2v-2z" fill="#fec108"/></g><g id="Layer_9" fill="#000"><path id="Shape" d="m7 32.72c-.56535584-1.8587504-.90118386-3.7796867-1-5.72 0-.3572656-.19059892-.6873926-.5-.8660254s-.69059892-.1786328-1 0-.5.5087598-.5.8660254c.07586178 2.1131692.41172386 4.2089485 1 6.24.14359403.5522847.70771525.883594 1.26.74s.88359403-.7077153.74-1.26z"/><path id="Shape" d="m8.45 36.56c-.14025315-.3475704-.46308796-.587532-.83633389-.6216433-.37324593-.0341112-.73422987.1433557-.93516279.4597449-.20093292.3163891-.20807542.7185742-.01850332 1.0418984.44714426.9154514.94801803 1.8036676 1.5 2.66.30375662.4639192.9260808.5937566 1.38999997.29.46391913-.3037566.59375663-.9260808.29000003-1.39-.51113322-.7851569-.9752804-1.5999189-1.39-2.44z"/><path id="Shape" d="m59.12 5.12c.8568812-.85794728 1.1130328-2.14736832.6491479-3.26769405-.4638849-1.12032574-1.5565813-1.85123941-2.7691479-1.85230595-.7953814.00070021-1.5579306.31723005-2.12.88l-9.69 9.69c-6.1643732 2.4012507-11.7577015 6.0665499-16.42 10.76-.2066869.211415-.400375.4351582-.58.67h-25.19c-1.65685425 0-3 1.3431458-3 3v1c.0018099 12.7119222 8.01508465 24.0426927 20 28.28v2.72c0 1.6568542 1.3431458 3 3 3h14c1.6568542 0 3-1.3431458 3-3v-2.72c11.9849154-4.2373073 19.9981901-15.5680778 20-28.28v-1c0-1.6568542-1.3431458-3-3-3h-11.12c1.4047032-2.2808601 2.5932028-4.6879902 3.55-7.19zm-2.83-2.83c.2860905-.28845995.7182668-.37516186 1.0934815-.21937095s.6188811.52310588.6165185.92937095c-.0036835.26476698-.1072663.51836621-.29.71l-9.15 9.14-1.41-1.41zm-10.81 10.31.26.25-9.15 9.15h-5.59c4.2014134-4.0048886 9.1117491-7.1925375 14.48-9.4zm-7.48 44.4c0 .5522847-.4477153 1-1 1h-14c-.5522847 0-1-.4477153-1-1v-2.09c5.2349896 1.4484472 10.7650104 1.4484472 16 0zm20-32v1c-.0000002 15.4639728-12.5360272 27.9999996-28 27.9999996s-27.99999977-12.5360268-28-27.9999996v-1c0-.5522847.44771525-1 1-1h13v1c0 1.6568542 1.3431458 3 3 3h14c.5522847 0 1 .4477153 1 1v12c0 1.6568542 1.3431458 3 3 3s3-1.3431458 3-3v-12c0-.5522847.4477153-1 1-1s1 .4477153 1 1v6c0 1.6568542 1.3431458 3 3 3s3-1.3431458 3-3v-6c0-.5522847.4477153-1 1-1 1.6568542 0 3-1.3431458 3-3v-1h5c.5522847 0 1 .4477153 1 1zm-8 0c0 .5522847-.4477153 1-1 1-1.6568542 0-3 1.3431458-3 3v6c0 .5522847-.4477153 1-1 1s-1-.4477153-1-1v-6c0-1.6568542-1.3431458-3-3-3s-3 1.3431458-3 3v12c0 .5522847-.4477153 1-1 1s-1-.4477153-1-1v-12c0-1.6568542-1.3431458-3-3-3h-14c-.5522847 0-1-.4477153-1-1v-1h32zm-10.59-3 7.74-7.74.25.26c-1.0495915 2.6123924-2.3489528 5.1173467-3.88 7.48z"/></g></g></svg>