<svg height="512pt" viewBox="0 -31 512.003 512" width="512pt" xmlns="http://www.w3.org/2000/svg"><path d="m321.5 121.929688h97.933594c2.179687 0 4.109375 1.410156 4.765625 3.488281l38.742187 122.101562c2.613282 8.242188 10.265625 13.839844 18.910156 13.839844h4.699219c9.914063 0 17.949219 8.039063 17.949219 17.949219v94.125c0 2.1875-1.773438 3.960937-3.960938 3.960937h-179.039062zm0 0" fill="#7ca1b1"/><path d="m504.5 279.304688v94.128906c0 2.191406-1.769531 3.960937-3.960938 3.960937h-16.640624c2.191406 0 3.972656-1.769531 3.972656-3.960937l-1.980469-82.679688c0-9.910156-8.039063-17.949218-17.949219-17.949218h-4.699218c-8.652344 0-16.300782-5.597657-18.910157-13.839844l-43.089843-133.546875c-.660157-2.082031-2.589844-3.492188-4.769532-3.492188h22.957032c2.179687 0 4.109374 1.410157 4.769531 3.492188l38.742187 122.097656c2.617188 8.238281 10.269532 13.839844 18.910156 13.839844h4.699219c9.910157 0 17.949219 8.039062 17.949219 17.949219zm0 0" fill="#678d98"/><path d="m321.5 377.394531h-310.136719c-2.132812 0-3.863281-1.730469-3.863281-3.863281v-251.601562h314zm0 0" fill="#f9efef"/><path d="m321.5 377.394531h-23.910156c-.601563 0-1.089844-.488281-1.089844-1.089843v-254.375h25.003906v255.464843zm0 0" fill="#efe2dd"/><path d="m504.5 320.417969h-26.335938c-2.765624 0-5.007812-2.242188-5.007812-5.007813v-21.328125c0-2.765625 2.242188-5.007812 5.007812-5.007812h26.335938zm0 0" fill="#f78e3c"/><path d="m488.828125 289.074219h15.671875v31.34375h-15.671875zm0 0" fill="#e8782d"/><path d="m449.324219 396.636719c0 24.933593-20.210938 45.144531-45.144531 45.144531-24.929688 0-45.144532-20.210938-45.144532-45.144531 0-24.933594 20.214844-45.144531 45.144532-45.144531 24.933593 0 45.144531 20.210937 45.144531 45.144531zm0 0" fill="#838383"/><path d="m449.324219 396.636719c0 24.933593-20.210938 45.144531-45.144531 45.144531-10.800782 0-20.714844-3.792969-28.484376-10.121094 5.527344 2.417969 11.632813 3.753906 18.050782 3.753906 24.929687 0 45.144531-20.210937 45.144531-45.144531 0-14.132812-6.5-26.75-16.671875-35.03125 15.957031 6.964844 27.105469 22.878907 27.105469 41.398438zm0 0" fill="#706f6f"/><path d="m421.941406 396.636719c0 9.808593-7.949218 17.761719-17.761718 17.761719-9.808594 0-17.761719-7.953126-17.761719-17.761719 0-9.808594 7.953125-17.761719 17.761719-17.761719 9.8125 0 17.761718 7.953125 17.761718 17.761719zm0 0" fill="#efe2dd"/><path d="m132.015625 396.636719c0 24.933593-20.210937 45.144531-45.144531 45.144531s-45.144532-20.210938-45.144532-45.144531c0-24.933594 20.210938-45.144531 45.144532-45.144531s45.144531 20.210937 45.144531 45.144531zm0 0" fill="#838383"/><path d="m132.015625 396.636719c0 24.933593-20.210937 45.144531-45.144531 45.144531-10.800782 0-20.71875-3.792969-28.484375-10.121094 5.527343 2.417969 11.628906 3.753906 18.050781 3.753906 24.929688 0 45.144531-20.210937 45.144531-45.144531 0-14.132812-6.5-26.75-16.671875-35.03125 15.953125 6.964844 27.105469 22.878907 27.105469 41.398438zm0 0" fill="#706f6f"/><path d="m104.632812 396.636719c0 9.808593-7.953124 17.761719-17.761718 17.761719s-17.761719-7.953126-17.761719-17.761719c0-9.808594 7.953125-17.761719 17.761719-17.761719s17.761718 7.953125 17.761718 17.761719zm0 0" fill="#efe2dd"/><path d="m244.445312 396.636719c0 24.933593-20.214843 45.144531-45.144531 45.144531-24.933593 0-45.144531-20.210938-45.144531-45.144531 0-24.933594 20.210938-45.144531 45.144531-45.144531 24.929688 0 45.144531 20.210937 45.144531 45.144531zm0 0" fill="#838383"/><path d="m244.445312 396.636719c0 24.933593-20.210937 45.144531-45.144531 45.144531-10.800781 0-20.71875-3.792969-28.484375-10.121094 5.527344 2.417969 11.628906 3.753906 18.050782 3.753906 24.929687 0 45.144531-20.210937 45.144531-45.144531 0-14.132812-6.5-26.75-16.671875-35.03125 15.953125 6.964844 27.105468 22.878907 27.105468 41.398438zm0 0" fill="#706f6f"/><path d="m217.0625 396.636719c0 9.808593-7.953125 17.761719-17.761719 17.761719-9.8125 0-17.761719-7.953126-17.761719-17.761719 0-9.808594 7.949219-17.761719 17.761719-17.761719 9.808594 0 17.761719 7.953125 17.761719 17.761719zm0 0" fill="#efe2dd"/><path d="m288.46875 78.15625h-247.9375c-4.433594 0-8.03125-3.59375-8.03125-8.03125v-54.59375c0-4.4375 3.597656-8.03125 8.03125-8.03125h247.9375c4.433594 0 8.03125 3.597656 8.03125 8.03125v54.59375c0 4.4375-3.597656 8.03125-8.03125 8.03125zm0 0" fill="#c9f0ff"/><path d="m288.46875 78.15625h-22.554688v-70.65625h22.554688c4.4375 0 8.03125 3.597656 8.03125 8.03125v54.59375c0 4.4375-3.597656 8.03125-8.03125 8.03125zm0 0" fill="#9ae7fd"/><path d="m457.421875 230.121094-11.613281-36.59375-14.179688-44.695313h-45.265625c-2.761719 0-5 2.238281-5 5v71.289063c0 2.761718 2.238281 5 5 5zm0 0" fill="#c9f0ff"/><path d="m457.421875 230.117188h-24.53125l-22.949219-81.289063h21.6875l14.179688 44.699219zm0 0" fill="#9ae7fd"/><path d="m234.480469 308.605469h-139.960938c-70.417969 0-55.4375-43.433594-55.4375-43.433594 8.355469-34.136719 27.429688-66.851563 60.007813-85.40625.90625-.519531 2.078125.085937 2.078125 1.078125v9.570312c6.675781-4.066406 13.992187-7.472656 21.972656-10.089843v-9.863281c0-.550782.386719-1.042969.953125-1.207032 8.042969-2.351562 16.382812-3.984375 24.851562-4.886718.804688-.085938 1.511719.507812 1.511719 1.261718v8.929688c7.277344-.753906 14.648438-.925782 21.972657-.515625v-8.964844c0-.730469.664062-1.3125 1.449218-1.265625 8.398438.523438 16.742188 1.769531 24.851563 3.75.597656.144531 1.015625.652344 1.015625 1.226562v9.671876c7.632812 2.097656 15.015625 4.90625 21.972656 8.445312v-9.347656c0-.949219 1.085938-1.558594 1.996094-1.121094 4.242187 2.039062 8.347656 4.328125 12.285156 6.863281 12.664062 8.164063 23.230469 18.6875 31.523438 30.503907 11.34375 16.167968 16.195312 33.375 22.390624 51.363281.011719.03125 14.964844 43.4375-55.433593 43.4375zm0 0" fill="#f78e3c"/><path d="m255.210938 307.066406c21.140624-13.890625 13.539062-38.082031 13.527343-38.101562-6.199219-19.71875-11.046875-38.589844-22.386719-56.320313-6.742187-10.527343-14.980468-20.128906-24.632812-28.160156v-6.917969c0-.960937 1.082031-1.558594 1.992188-1.128906 4.25 2.039062 8.347656 4.328125 12.289062 6.867188 12.660156 8.160156 23.230469 18.679687 31.519531 30.5 11.351563 16.171874 16.199219 33.382812 22.398438 51.371093.011719.019531 11.773437 34.179688-34.707031 41.890625zm0 0" fill="#e8782d"/><g fill="#d1a190"><path d="m123.144531 180.324219v40.070312c0 5.4375-4.921875 9.847657-10.988281 9.847657s-10.988281-4.410157-10.988281-9.847657v-29.980469c6.675781-4.066406 13.992187-7.472656 21.976562-10.089843zm0 0"/><path d="m172.433594 174.042969v46.351562c0 5.4375-4.921875 9.847657-10.988282 9.847657-6.070312 0-10.988281-4.410157-10.988281-9.847657v-45.835937c7.277344-.753906 14.648438-.925782 21.976563-.515625zm0 0"/><path d="m221.71875 186.90625v33.484375c0 5.441406-4.917969 9.851563-10.988281 9.851563-6.066407 0-10.984375-4.410157-10.984375-9.851563v-41.929687c7.636718 2.097656 15.015625 4.910156 21.972656 8.445312zm0 0"/></g><path d="m404.179688 371.375c-13.929688 0-25.261719 11.332031-25.261719 25.261719 0 13.929687 11.332031 25.261719 25.261719 25.261719 13.929687 0 25.261718-11.332032 25.261718-25.261719 0-13.929688-11.332031-25.261719-25.261718-25.261719zm0 35.523438c-5.65625 0-10.261719-4.601563-10.261719-10.261719 0-5.65625 4.605469-10.261719 10.261719-10.261719 5.660156 0 10.261718 4.605469 10.261718 10.261719 0 5.660156-4.601562 10.261719-10.261718 10.261719zm0 0"/><path d="m86.871094 371.375c-13.929688 0-25.261719 11.332031-25.261719 25.261719 0 13.929687 11.332031 25.261719 25.261719 25.261719 13.929687 0 25.261718-11.332032 25.261718-25.261719 0-13.929688-11.332031-25.261719-25.261718-25.261719zm0 35.523438c-5.660156 0-10.261719-4.601563-10.261719-10.261719 0-5.65625 4.601563-10.261719 10.261719-10.261719 5.65625 0 10.261718 4.605469 10.261718 10.261719 0 5.660156-4.605468 10.261719-10.261718 10.261719zm0 0"/><path d="m199.300781 371.375c-13.929687 0-25.261719 11.332031-25.261719 25.261719 0 13.929687 11.332032 25.261719 25.261719 25.261719 13.929688 0 25.261719-11.332032 25.261719-25.261719 0-13.929688-11.335938-25.261719-25.261719-25.261719zm0 35.523438c-5.660156 0-10.261719-4.601563-10.261719-10.261719 0-5.65625 4.601563-10.261719 10.261719-10.261719 5.65625 0 10.261719 4.605469 10.261719 10.261719 0 5.660156-4.605469 10.261719-10.261719 10.261719zm0 0"/><path d="m347 171.65625h12.035156c4.144532 0 7.5-3.355469 7.5-7.5 0-4.140625-3.355468-7.5-7.5-7.5h-12.035156c-4.140625 0-7.5 3.359375-7.5 7.5 0 4.144531 3.359375 7.5 7.5 7.5zm0 0"/><path d="m347 196.976562h12.035156c4.144532 0 7.5-3.359374 7.5-7.5 0-4.144531-3.355468-7.5-7.5-7.5h-12.035156c-4.140625 0-7.5 3.355469-7.5 7.5 0 4.140626 3.359375 7.5 7.5 7.5zm0 0"/><path d="m359.035156 207.296875h-12.035156c-4.140625 0-7.5 3.355469-7.5 7.5 0 4.140625 3.359375 7.5 7.5 7.5h12.035156c4.144532 0 7.5-3.359375 7.5-7.5 0-4.144531-3.355468-7.5-7.5-7.5zm0 0"/><path d="m486.550781 253.859375h-4.699219c-5.402343 0-10.128906-3.457031-11.761718-8.609375l-31.3125-98.6875-7.429688-23.414062c-1.65625-5.214844-6.441406-8.71875-11.914062-8.71875h-146.019532v-28.769532h15.054688c8.5625 0 15.53125-6.96875 15.53125-15.53125v-54.597656c0-8.5625-6.96875-15.53125-15.53125-15.53125h-247.9375c-8.5625 0-15.53125 6.96875-15.53125 15.53125v54.59375c0 8.566406 6.96875 15.53125 15.53125 15.53125h15.058594v28.773438h-48.089844c-4.144531 0-7.5 3.355468-7.5 7.5v251.503906c0 6.320312 5.054688 11.460937 11.269531 11.460937h24.292969c-.863281 3.78125-1.335938 7.707031-1.335938 11.742188 0 29.03125 23.617188 52.644531 52.644532 52.644531s52.644531-23.613281 52.644531-52.644531c0-4.035157-.472656-7.964844-1.335937-11.742188h9.8125c-.863282 3.78125-1.335938 7.707031-1.335938 11.742188 0 29.03125 23.617188 52.644531 52.644531 52.644531 29.027344 0 52.644531-23.613281 52.644531-52.644531 0-4.035157-.472656-7.964844-1.335937-11.742188h70.875c.007813 0 .011719.003907.019531.003907h31.371094c-.867188 3.777343-1.335938 7.703124-1.335938 11.738281 0 29.03125 23.613282 52.644531 52.644532 52.644531 29.027344 0 52.644531-23.613281 52.644531-52.644531 0-4.035157-.472656-7.960938-1.335937-11.738281h45.046874c6.320313 0 11.464844-5.144532 11.464844-11.464844v-94.125c-.003906-14.03125-11.421875-25.449219-25.453125-25.449219zm-446.019531-183.203125c-.292969 0-.53125-.234375-.53125-.53125v-54.59375c0-.292969.238281-.53125.53125-.53125h247.9375c.292969 0 .53125.238281.53125.53125v54.59375c0 .296875-.238281.53125-.53125.53125h-165.324219c-4.144531 0-7.5 3.359375-7.5 7.5 0 4.144531 3.355469 7.5 7.5 7.5h135.269531v28.773438h-187.824218v-28.773438h17.746094c4.140624 0 7.5-3.355469 7.5-7.5 0-4.140625-3.359376-7.5-7.5-7.5zm46.339844 363.625c-20.757813 0-37.644532-16.886719-37.644532-37.644531 0-20.757813 16.886719-37.644531 37.644532-37.644531 20.757812 0 37.644531 16.886718 37.644531 37.644531 0 20.757812-16.886719 37.644531-37.644531 37.644531zm112.429687 0c-20.757812 0-37.644531-16.886719-37.644531-37.644531 0-20.757813 16.886719-37.644531 37.644531-37.644531 20.757813 0 37.644531 16.886718 37.644531 37.644531 0 20.757812-16.886718 37.644531-37.644531 37.644531zm114.699219-64.386719h-69.378906c-9.175782-15.488281-26.050782-25.902343-45.320313-25.902343s-36.144531 10.414062-45.320312 25.902343h-21.789063c-9.175781-15.488281-26.050781-25.902343-45.320312-25.902343-19.269532 0-36.144532 10.414062-45.320313 25.902343h-26.550781v-240.464843h299zm133.171875-147.273437h-58.308594v-66.289063h37.277344zm-42.988281 211.660156c-20.757813 0-37.648438-16.886719-37.648438-37.644531 0-20.757813 16.890625-37.644531 37.648438-37.644531 20.753906 0 37.644531 16.886718 37.644531 37.644531-.003906 20.757812-16.890625 37.644531-37.644531 37.644531zm92.816406-121.363281h-16.347656v-16.347657h16.347656zm0-31.34375h-18.835938c-6.898437 0-12.507812 5.609375-12.507812 12.507812v21.328125c0 6.898438 5.609375 12.507813 12.507812 12.507813h18.835938v41.980469h-47.5c-9.171875-15.492188-26.046875-25.902344-45.320312-25.902344-19.269532 0-36.144532 10.414062-45.320313 25.902344h-29.859375v-240.46875h88.605469l3.773437 11.902343h-35.015625c-6.894531 0-12.5 5.605469-12.5 12.5v71.289063c0 6.894531 5.605469 12.5 12.5 12.5h65.566407l3.863281 12.167968c3.617187 11.40625 14.089843 19.070313 26.058593 19.070313h4.699219c5.761719 0 10.449219 4.6875 10.449219 10.449219zm0 0"/><path d="m389.988281 283.039062h-17.253906c-4.140625 0-7.5 3.355469-7.5 7.5 0 4.140626 3.359375 7.5 7.5 7.5h17.253906c4.144531 0 7.5-3.359374 7.5-7.5 0-4.144531-3.355469-7.5-7.5-7.5zm0 0"/><path d="m94.519531 316.105469h139.960938c28.6875 0 48.148437-6.976563 57.84375-20.734375 10.722656-15.214844 4.90625-32.015625 4.683593-32.644532-.84375-2.441406-1.660156-4.875-2.472656-7.285156-2.296875-6.832031-4.671875-13.894531-7.453125-20.742187-.019531-.042969-.035156-.089844-.054687-.132813l-2.355469-5.496094c-.03125-.074218-.0625-.144531-.097656-.214843l-1.351563-2.90625c-.023437-.050781-.046875-.101563-.070312-.148438l-1.023438-2.074219c-1.832031-3.71875-6.328125-5.246093-10.042968-3.414062-3.714844 1.828125-5.242188 6.328125-3.410157 10.042969l2.257813 4.726562 2.277344 5.324219c2.601562 6.40625 4.789062 12.917969 7.109374 19.816406.808594 2.40625 1.625 4.828125 2.488282 7.339844.140625.433594 3.394531 10.699219-2.898438 19.386719-6.714844 9.261719-22.425781 14.15625-45.429687 14.15625h-139.960938c-23.003906 0-38.710937-4.894531-45.425781-14.15625-6.296875-8.6875-3.042969-18.953125-2.921875-19.332031.078125-.21875.144531-.441407.195313-.664063 7.882812-32.203125 24.503906-58.355469 47.300781-74.792969v28.234375c0 9.566407 8.292969 17.351563 18.484375 17.351563 10.195312 0 18.488281-7.785156 18.488281-17.351563v-45.15625c4.035156-1.023437 8.148437-1.867187 12.3125-2.519531v47.675781c0 9.566407 8.292969 17.351563 18.488281 17.351563 10.195313 0 18.488282-7.785156 18.488282-17.351563v-48.535156c4.15625.457031 8.273437 1.105469 12.3125 1.933594v46.601562c0 9.566407 8.292968 17.351563 18.488281 17.351563 10.191406 0 18.484375-7.785156 18.484375-17.351563v-32.472656c.917968.550781 1.824218 1.113281 2.71875 1.6875 6.300781 4.0625 12.222656 8.875 17.597656 14.304687 2.914062 2.945313 7.664062 2.96875 10.605469.058594 2.945312-2.914062 2.96875-7.664062.058593-10.609375-6.144531-6.203125-12.917968-11.710937-20.136718-16.359375-4.136719-2.667968-8.546875-5.132812-13.097656-7.320312-2.789063-1.34375-6.019532-1.160156-8.640626.484375-1.953124 1.230469-3.3125 3.125-3.847656 5.289062-.109375-.042969-.21875-.082031-.328125-.121093-.980469-.382813-1.96875-.75-2.960937-1.109376-.109375-.039062-.222656-.082031-.332032-.121093-1.105468-.394531-2.222656-.773438-3.347656-1.136719-.089844-.03125-.175781-.0625-.261718-.089844v-4.085937c0-4.042969-2.769532-7.542969-6.734376-8.515625-8.460937-2.0625-17.265624-3.394532-26.167968-3.945313-2.441406-.152343-4.871094.71875-6.652344 2.390625-1.753906 1.648438-2.761719 3.964844-2.761719 6.359375v1.246094c-.132812 0-.265625.003906-.402343.003906-.625 0-1.25.007813-1.875.019531-.625.007813-1.25.015626-1.875.035157-.875.019531-1.746094.050781-2.621094.089843-.066406.003907-.132813.003907-.199219.007813v-.855469c0-2.460937-1.054687-4.828125-2.894531-6.484375-1.871094-1.683593-4.394532-2.5-6.910156-2.230469-8.921876.949219-17.722657 2.679688-26.164063 5.144532-3.734375 1.09375-6.34375 4.550781-6.34375 8.40625v4.566406c-.140625.054688-.273437.113281-.414063.164062-.914062.355469-1.824218.722657-2.726562 1.097657-.238281.097656-.480469.191406-.71875.292969-1.132812.476562-2.257812.976562-3.371094 1.492187-.058594.027344-.117187.050781-.175781.078125-.660156-2.015625-2.046875-3.765625-3.9375-4.863281-2.746094-1.59375-6.164063-1.609375-8.921875-.039063-31.046875 17.6875-53.597656 49.601563-63.519531 89.890625-.859375 2.800781-5.011719 18.441407 4.929687 32.386719 9.734375 13.648438 29.160156 20.574219 57.734375 20.574219zm112.726563-127.347657c.144531.054688.289062.105469.433594.160157.9375.355469 1.867187.71875 2.789062 1.09375.121094.050781.246094.09375.367188.144531 1.03125.429688 2.050781.871094 3.0625 1.324219.109374.050781.214843.101562.324218.148437v28.765625c0 1.105469-1.492187 2.347657-3.488281 2.347657s-3.488281-1.238282-3.488281-2.347657zm-49.289063-7.238281c1.195313-.058593 2.394531-.125 3.589844-.15625.105469 0 .207031 0 .3125-.003906 1.023437-.019531 2.046875-.011719 3.074219-.007813v39.042969c0 1.105469-1.492188 2.347657-3.488282 2.347657-1.996093 0-3.488281-1.238282-3.488281-2.347657zm-49.289062 13.226563c.144531-.078125.292969-.160156.4375-.238282.863281-.46875 1.730469-.925781 2.609375-1.367187.171875-.089844.34375-.179687.515625-.265625 1.03125-.511719 2.074219-1.007812 3.128906-1.484375.09375-.042969.1875-.082031.28125-.125v29.128906c0 1.105469-1.488281 2.347657-3.484375 2.347657s-3.488281-1.238282-3.488281-2.347657zm0 0"/></svg>