<?xml version="1.0"?>
<svg xmlns="http://www.w3.org/2000/svg" id="filled_outline" data-name="filled outline" viewBox="0 0 512 512" width="512" height="512"><path d="M336,48.00011H304a38.62739,38.62739,0,0,0-27.31368,11.3137L272,64.00011l4.6863,4.6863A38.62739,38.62739,0,0,0,304,80.00011L336,80Z" style="fill:#ffb401"/><polygon points="296 440 312 456 312 488 224 488 224 440 296 440" style="fill:#ffceb6"/><polygon points="240 40 168 24 96 40 96 96 240 96 240 40" style="fill:#e0edff"/><path d="M128,232l-21.26955-13.29347a64,64,0,0,1-26.7958-74.51047L96,96H240l16.06535,48.19606a64,64,0,0,1-26.7958,74.51047L208,232Z" style="fill:#b1712c"/><polygon points="139.849 196.454 128 232 168 264 208 232 196.151 196.454 139.849 196.454" style="fill:#ffbfa1"/><path d="M240,384l72-32-27.35191-75.21775a32,32,0,0,0-17.077-18.30619L208,232l-24,8-16,24-16-24-24-8L67.88467,258.71793a32,32,0,0,0-16.71483,17.35746L24,344l72,48v96H240Z" style="fill:#e0edff"/><path d="M186.66667,400l-43.75454-65.6318a23.732,23.732,0,0,1,9.133-34.39074l.00005,0a23.732,23.732,0,0,1,32.96274,13.24463L216,400Z" style="fill:#e3a15b"/><polygon points="296 400 286.8 363.2 240 384 240 400 296 400" style="fill:#ffceb6"/><rect x="336" y="160" width="120" height="328" rx="59.99994" ry="59.99994" style="fill:#f5b97d"/><path d="M360,264l10.01748-16.6958A48,48,0,0,1,411.17714,224H432l-3.9307,9.82675A48,48,0,0,1,383.50242,264Z" style="fill:#e6a565"/><path d="M360,336l10.01748-16.6958A48,48,0,0,1,411.17714,296H432l-3.9307,9.82675A48,48,0,0,1,383.50242,336Z" style="fill:#e6a565"/><path d="M360,408l10.01748-16.6958A48,48,0,0,1,411.17714,368H432l-3.9307,9.82675A48,48,0,0,1,383.50242,408Z" style="fill:#e6a565"/><path d="M304,104.00011V91.31381a27.31368,27.31368,0,0,1,8-19.31369l0,0a27.31372,27.31372,0,0,1,19.31369-8H344v12.6863a27.31366,27.31366,0,0,1-8,19.31369l0,0a27.31368,27.31368,0,0,1-19.31369,8Z" style="fill:#ffc431"/><path d="M344,104.00011V91.31381a27.31368,27.31368,0,0,1,8-19.31369l0,0a27.31372,27.31372,0,0,1,19.31369-8H384v12.6863a27.31366,27.31366,0,0,1-8,19.31369l0,0a27.31368,27.31368,0,0,1-19.31369,8Z" style="fill:#ffc431"/><path d="M384,104.00011V91.31381a27.31368,27.31368,0,0,1,8-19.31369l0,0a27.31372,27.31372,0,0,1,19.31369-8H424v12.6863a27.31366,27.31366,0,0,1-8,19.31369l0,0a27.31368,27.31368,0,0,1-19.31369,8Z" style="fill:#ffc431"/><path d="M304,24.00011v12.6863a27.31366,27.31366,0,0,0,8,19.31369l0,0a27.31368,27.31368,0,0,0,19.31369,8H344V51.31381a27.31368,27.31368,0,0,0-8-19.31369l0,0a27.31372,27.31372,0,0,0-19.31369-8Z" style="fill:#ffc431"/><path d="M344,24.00011v12.6863a27.31366,27.31366,0,0,0,8,19.31369l0,0a27.31368,27.31368,0,0,0,19.31369,8H384V51.31381a27.31368,27.31368,0,0,0-8-19.31369l0,0a27.31372,27.31372,0,0,0-19.31369-8Z" style="fill:#ffc431"/><path d="M384,24.00011v12.6863a27.31366,27.31366,0,0,0,8,19.31369l0,0a27.31368,27.31368,0,0,0,19.31369,8H424V51.31381a27.31368,27.31368,0,0,0-8-19.31369l0,0a27.31372,27.31372,0,0,0-19.31369-8Z" style="fill:#ffc431"/><path d="M32,349.33333V416l40,16,56-32h56V384a42.0179,42.0179,0,0,0-32.954-28.159L128,352,72,376Z" style="fill:#ffceb6"/><path d="M128,400H304v16a72,72,0,0,1-72,72H200a72,72,0,0,1-72-72Z" style="fill:#8098ab"/><path d="M192,96v0a73.73244,73.73244,0,0,0,29.04936,38.03289L224,136v24.00006A55.99994,55.99994,0,0,1,168.00006,216h-.00012A55.99994,55.99994,0,0,1,112,160.00006V136l2.95063-1.96709A73.73244,73.73244,0,0,0,144,96v0Z" style="fill:#ffceb6"/><path d="M152,184h8a24.0275,24.0275,0,0,0,24-24v-8H168v8a8.00917,8.00917,0,0,1-8,8h-8Z"/><circle cx="144" cy="136" r="8"/><circle cx="192" cy="136" r="8"/><path d="M19.5625,350.65625,24,353.61456V416a7.99873,7.99873,0,0,0,5.0293,7.42773l40,16a7.99727,7.99727,0,0,0,6.93945-.48193L88,432.0708V488a8.00008,8.00008,0,0,0,8,8H312a8.00008,8.00008,0,0,0,8-8V456a8.00035,8.00035,0,0,0-2.34277-5.65674l-9.59424-9.59411A79.65753,79.65753,0,0,0,312,416V400a8.00008,8.00008,0,0,0-8-8h-1.75415l-6.05493-24.21924,19.0581-8.47021a7.99977,7.99977,0,0,0,4.26953-10.04444L292.167,274.04785a40.20447,40.20447,0,0,0-21.34668-22.88232l-45.8125-20.36109,8.502-5.31372a71.79718,71.79718,0,0,0,30.1455-83.82422L248,94.70068V40a8.00044,8.00044,0,0,0-6.26465-7.80957l-72-16a8.00206,8.00206,0,0,0-3.4707,0l-72,16A8.00044,8.00044,0,0,0,88,40V94.70068L72.34473,141.6665a71.79718,71.79718,0,0,0,30.1455,83.82422l8.502,5.31372L64.63574,251.40723A39.79031,39.79031,0,0,0,43.74219,273.104L16.57227,341.02881A7.99968,7.99968,0,0,0,19.5625,350.65625ZM71.38477,423.1377,40,410.5835V364.28125l27.5625,18.375a7.99969,7.99969,0,0,0,7.58887.69678l53.8457-23.07666,20.7334,3.45556A33.93751,33.93751,0,0,1,176,385.36816V392H128a7.95385,7.95385,0,0,0-3.96631,1.05853l-.00244-.00433Zm120.20507-41.66749a49.899,49.899,0,0,0-27.78271-30.18133l-14.23877-21.35822a15.732,15.732,0,1,1,27.90527-14.01757L204.64771,392H192v-8A8.01,8.01,0,0,0,191.58984,381.47021ZM104,480V422.92792l16-9.14282V416a79.92632,79.92632,0,0,0,32.05542,64Zm96,0a64.07239,64.07239,0,0,1-64-64v-8H296v8a64.07239,64.07239,0,0,1-64,64Zm104-20.68652V480H279.94458a80.60486,80.60486,0,0,0,21.09155-23.65033ZM285.75415,392H248v-2.801l33.34863-14.82153ZM149.52905,104H186.4707A82.18588,82.18588,0,0,0,216,140.27686V160a48,48,0,0,1-96,0V140.27686A82.18634,82.18634,0,0,0,149.52905,104ZM168,224a63.59957,63.59957,0,0,0,26.915-5.95532l2.96533,8.89575-16.41064,5.47021a7.99583,7.99583,0,0,0-4.126,3.15186L168,249.57764l-9.34375-14.01514a7.99583,7.99583,0,0,0-4.126-3.15186l-16.41064-5.47021,2.96533-8.89575A63.59957,63.59957,0,0,0,168,224Zm57.0293-12.07764-12.65284,7.90808-3.53295-10.59918A63.89176,63.89176,0,0,0,232,160V136a8.00133,8.00133,0,0,0-3.56152-6.65576l-2.95118-1.96778A66.0544,66.0544,0,0,1,204.1792,104h30.05444l14.242,42.72607A55.84008,55.84008,0,0,1,225.0293,211.92236ZM104,46.41748l64-14.22217,64,14.22217V88H104ZM87.52441,146.72607,101.76636,104H131.8208A66.05438,66.05438,0,0,1,110.51172,127.377l-2.9502,1.96729A8.00133,8.00133,0,0,0,104,136v24a63.89176,63.89176,0,0,0,23.15649,49.23126l-3.53295,10.59918-12.65284-7.90808A55.84008,55.84008,0,0,1,87.52441,146.72607ZM58.59766,279.0459a23.87653,23.87653,0,0,1,12.53613-13.01758l57.27978-25.45764,18.45264,6.151,14.47754,21.71582a7.99959,7.99959,0,0,0,13.3125,0l14.47754-21.71582,18.45264-6.151,56.73584,25.21594a24.12161,24.12161,0,0,1,12.80761,13.72949l24.80176,68.2041L248,371.68988V320H232v72H221.63818L192.542,310.53174a31.732,31.732,0,1,0-56.28613,28.27392l4.845,7.26734-11.7854-1.96411a7.99072,7.99072,0,0,0-4.4668.53808L104,353.58215V320H88v40h1.02515L72.832,366.93994l-38.99316-25.9956Z"/><path d="M328,220V428a68,68,0,0,0,136,0V220a68,68,0,0,0-136,0Zm68-52a52.059,52.059,0,0,1,52,52V428a52,52,0,0,1-104,0V220A52.059,52.059,0,0,1,396,168Z"/><path d="M360,272h23.502a55.73248,55.73248,0,0,0,51.99512-35.20215l3.93066-9.82666A7.99957,7.99957,0,0,0,432,216H411.17676a56.28415,56.28415,0,0,0-48.01953,27.188l-10.01758,16.6958A8.00029,8.00029,0,0,0,360,272Zm16.87793-20.57959A40.19894,40.19894,0,0,1,411.17676,232h8.9873A39.80006,39.80006,0,0,1,383.502,256h-9.37207Z"/><path d="M360,344h23.502a55.73248,55.73248,0,0,0,51.99512-35.20215l3.93066-9.82666A7.99957,7.99957,0,0,0,432,288H411.17676a56.28415,56.28415,0,0,0-48.01953,27.188l-10.01758,16.6958A8.00029,8.00029,0,0,0,360,344Zm16.87793-20.57959A40.19894,40.19894,0,0,1,411.17676,304h8.9873A39.80006,39.80006,0,0,1,383.502,328h-9.37207Z"/><path d="M360,416h23.502a55.73248,55.73248,0,0,0,51.99512-35.20215l3.93066-9.82666A7.99957,7.99957,0,0,0,432,360H411.17676a56.28415,56.28415,0,0,0-48.01953,27.188l-10.01758,16.6958A8.00029,8.00029,0,0,0,360,416Zm16.87793-20.57959A40.19894,40.19894,0,0,1,411.17676,376h8.9873A39.80006,39.80006,0,0,1,383.502,400h-9.37207Z"/><path d="M432,56.45514V51.314A35.31326,35.31326,0,0,0,396.68652,16H384a7.99642,7.99642,0,0,0-7.718,5.923A35.06523,35.06523,0,0,0,356.68652,16H344a7.99642,7.99642,0,0,0-7.718,5.923A35.06523,35.06523,0,0,0,316.68652,16H304a8.00008,8.00008,0,0,0-8,8V36.68652a35.9455,35.9455,0,0,0,.22729,3.96784,46.27465,46.27465,0,0,0-25.197,13.00238l-4.68652,4.686a8,8,0,0,0-.001,11.314l4.68653,4.68652a46.27443,46.27443,0,0,0,25.19824,13.0025A35.89181,35.89181,0,0,0,296,91.314V104a8.00008,8.00008,0,0,0,8,8h12.68652a35.06333,35.06333,0,0,0,19.59546-5.923A7.9965,7.9965,0,0,0,344,112h12.68652a35.06333,35.06333,0,0,0,19.59546-5.923A7.9965,7.9965,0,0,0,384,112h12.68652A35.31326,35.31326,0,0,0,432,76.68652v-4.106A56.07915,56.07915,0,0,1,480,128V496h16V128A72.09484,72.09484,0,0,0,432,56.45514ZM392,32h4.68652A19.31415,19.31415,0,0,1,416,51.314V56h-4.68652A19.31415,19.31415,0,0,1,392,36.68652Zm-40,0h4.68652A19.31415,19.31415,0,0,1,376,51.314V56h-4.68652A19.31415,19.31415,0,0,1,352,36.68652Zm-40,0h4.68652A19.31415,19.31415,0,0,1,336,51.314V56h-4.68652A19.31415,19.31415,0,0,1,312,36.68652ZM301.79761,71.91431a30.36548,30.36548,0,0,1-18.43921-7.91382,30.36131,30.36131,0,0,1,18.439-7.9148,35.65236,35.65236,0,0,0,4.54541,5.571Q307.58459,62.89856,308.92505,64q-1.33851,1.10138-2.58228,2.34326A35.64791,35.64791,0,0,0,301.79761,71.91431ZM316.68652,96H312V91.314A19.31415,19.31415,0,0,1,331.31348,72H336v4.68652A19.31415,19.31415,0,0,1,316.68652,96Zm40,0H352V91.314A19.31415,19.31415,0,0,1,371.31348,72H376v4.68652A19.31415,19.31415,0,0,1,356.68652,96ZM416,76.68652A19.31415,19.31415,0,0,1,396.68652,96H392V91.314A19.31415,19.31415,0,0,1,411.31348,72H416Z"/><rect x="300.68629" y="135.99982" width="22.62742" height="16.00036" transform="translate(-10.43557 262.80785) rotate(-45.00247)"/><rect x="351.99994" y="123.05573" width="16.00011" height="17.88854" transform="translate(80.92436 394.94636) rotate(-63.43182)"/><rect x="413.57779" y="120.00018" width="28.84441" height="15.99963" transform="translate(0.88085 258.90925) rotate(-33.69007)"/><rect x="452.00016" y="143.05573" width="15.99968" height="17.88854" transform="translate(-19.41297 221.76532) rotate(-26.56505)"/><rect x="287.99982" y="172.68629" width="16.00036" height="22.62742" transform="translate(-43.41125 263.19596) rotate(-45)"/><rect x="271.05573" y="211.99994" width="17.88854" height="16.00011" transform="translate(-68.8266 148.44582) rotate(-26.56505)"/><rect x="271.99994" y="107.05573" width="16.00011" height="17.88854" transform="translate(51.02664 314.56284) rotate(-63.43495)"/></svg>
