<?xml version="1.0" encoding="UTF-8"?>
<!DOCTYPE svg PUBLIC "-//W3C//DTD SVG 1.1//EN" "http://www.w3.org/Graphics/SVG/1.1/DTD/svg11.dtd">
<!-- Creator: CorelDRAW X7 -->
<svg xmlns="http://www.w3.org/2000/svg" xml:space="preserve" width="31.75mm" height="15.875mm" version="1.1" style="shape-rendering:geometricPrecision; text-rendering:geometricPrecision; image-rendering:optimizeQuality; fill-rule:evenodd; clip-rule:evenodd"
viewBox="0 0 3175 1588"
 xmlns:xlink="http://www.w3.org/1999/xlink">
 <defs>
  <style type="text/css">
   <![CDATA[
    .fil0 {fill:#020202}
    .fil2 {fill:#313131}
    .fil3 {fill:#838383}
    .fil1 {fill:#EFEFEF}
   ]]>
  </style>
 </defs>
 <g id="Capa_x0020_1">
  <metadata id="CorelCorpID_0Corel-Layer"/>
  <g id="_1590998392656">
   <g>
    <path class="fil0" d="M1468 561c24,-26 62,-111 160,-115l76 14c-35,34 -85,65 -82,132 18,-35 27,-49 55,-74l51 -33c57,-23 113,1 155,33 -50,37 -102,50 -114,136 2,-1 4,-3 5,-4l54 -57c82,-71 145,-47 187,54 62,152 -185,115 -288,111 -134,-4 -309,18 -426,3 -187,-24 -29,-206 34,-233l-5 80c49,-99 41,-131 185,-151 -24,45 -40,41 -47,104zm-281 157c20,85 146,79 240,75 104,-4 199,-8 305,-4 81,4 223,17 285,-23 78,-49 13,-171 -27,-211 -25,-26 -39,-22 -65,-43l-27 -23c-26,-17 -81,-42 -114,-45 -84,-9 -100,-48 -208,-18 -53,14 -73,-18 -181,35 -88,42 -236,133 -208,257z"/>
    <path class="fil0" d="M566 1247c8,19 26,48 37,71 72,157 81,-14 135,-69l0 151 59 1 -5 -263 -70 0c-20,29 -54,103 -67,139 -35,-33 -43,-99 -77,-139l-74 0 -1 263 60 0 3 -154z"/>
    <path class="fil0" d="M1907 1186l81 13c20,75 -10,78 -81,78l0 -91zm3 142c92,0 166,-17 141,-126 -16,-72 -125,-72 -206,-61l0 259 61 -3 4 -69z"/>
    <path class="fil0" d="M1463 1351c-45,5 -72,-4 -73,-50 0,-46 21,-57 63,-56 39,38 41,65 10,106zm20 -136c-96,-48 -178,22 -144,123 39,114 122,40 145,51 4,2 -2,19 56,8l-2 -275 -53 -1 -2 94z"/>
    <path class="fil0" d="M2145 1326c26,-17 34,-12 65,-12 -4,25 -8,41 -35,43 -28,2 -29,-9 -30,-31zm122 73c0,-49 9,-149 -18,-179 -34,-38 -121,-28 -154,6l18 30c32,-3 90,-43 95,17 -66,0 -168,15 -113,101 32,51 84,12 122,20 27,6 16,8 50,5z"/>
    <path class="fil0" d="M1719 1349c-98,19 -92,-79 -51,-99 61,-30 93,42 51,99zm-132 -23c25,121 234,92 208,-49 -23,-122 -239,-99 -208,49z"/>
    <path class="fil0" d="M883 1387c44,35 70,1 100,4 9,1 11,10 61,10l0 -203 -56 3c0,31 3,79 0,109 -4,43 -19,45 -63,42 -18,-43 -12,-97 -12,-154l-56 5c0,62 -13,153 26,184z"/>
    <path class="fil0" d="M2377 1301c0,-75 75,-88 75,-9l0 109 56 -2c0,-101 23,-234 -109,-193l-34 -3c-24,-6 -19,-5 -45,-2l0 198 57 2 0 -100z"/>
    <path class="fil0" d="M1159 1399c0,-29 -5,-114 6,-136 16,-34 69,-34 69,21l0 117 56 -4c0,-55 11,-147 -20,-180 -17,-18 -45,-25 -77,-16 -85,25 31,-3 -90,-3l0 203 56 -2z"/>
    <path class="fil0" d="M2560 1167c-4,30 9,112 10,150 56,10 45,-9 49,-25l4 -154 -60 0 -3 29z"/>
    <path class="fil0" d="M2571 1345c-43,76 83,84 46,-4l-46 4z"/>
   </g>
   <path class="fil1" d="M1468 561c7,-63 23,-59 47,-104 -144,20 -136,52 -185,151l5 -80c-63,27 -221,209 -34,233 117,15 292,-7 426,-3 103,4 350,41 288,-111 -42,-101 -105,-125 -187,-54l-54 57c-1,1 -3,3 -5,4 12,-86 64,-99 114,-136 -42,-32 -98,-56 -155,-33l-51 33c-28,25 -37,39 -55,74 -3,-67 47,-98 82,-132l-76 -14c-98,4 -136,89 -160,115z"/>
   <path class="fil2" d="M1870 302c5,-25 -6,-21 71,-4 21,4 53,12 82,35l197 168c43,48 43,34 61,54 63,73 -61,141 -125,200 -29,26 7,-8 -15,11 -9,8 -3,3 -12,13 -49,54 -38,23 -84,72 -28,30 -89,57 -134,60 -33,1 -13,15 -26,-15l-3 16c-19,-1 -26,-1 -40,-4 -17,-5 2,-2 -10,-4l-63 1c-1,0 -3,0 -3,1l-21 -2c-61,-19 -19,15 -68,4l-21 -3c0,0 -2,0 -2,0l-56 1c-23,2 -15,18 -22,-10l-62 8c-25,10 10,-8 -35,-5l-25 7c-12,0 11,0 -8,-3l-10 1c-1,0 -2,1 -2,1l-95 -3c-1,0 -4,-1 -5,-2l-79 -18c-89,-39 -160,-118 -233,-182 -88,-77 -140,-87 -11,-191l205 -174c54,-30 132,-31 185,-40 1,0 3,-1 4,-1l13 2c47,7 19,3 54,-2l79 -1c1,0 3,0 4,0l113 -1c4,0 10,-2 18,-2 14,-1 15,1 18,1l50 3c2,0 7,0 9,-1 0,0 3,0 4,0 8,-2 8,-3 9,-3l57 3c22,-6 -3,-12 27,1l10 8zm-966 316c8,53 201,202 264,259 90,83 320,62 459,62 298,0 331,28 518,-137 15,-13 16,-19 32,-33l72 -62c14,-12 25,-18 38,-29 19,-16 42,-52 36,-93 -8,-49 -74,-91 -96,-110l-70 -62c-16,-15 -15,-19 -33,-34l-67 -58c-105,-83 -313,-60 -463,-60 -212,0 -302,-31 -444,79l-143 124c-45,34 -112,91 -103,154z"/>
   <path class="fil3" d="M1870 302c115,29 111,5 237,120l65 58c67,60 120,74 111,145 3,-17 -11,9 -12,11l-103 89c-1,0 -2,2 -3,3l-54 49c-119,101 -93,92 -226,119 13,30 -7,16 26,15 45,-3 106,-30 134,-60 46,-49 35,-18 84,-72 9,-10 3,-5 12,-13 22,-19 -14,15 15,-11 64,-59 188,-127 125,-200 -18,-20 -18,-6 -61,-54l-197 -168c-29,-23 -61,-31 -82,-35 -77,-17 -66,-21 -71,4z"/>
  </g>
 </g>
</svg>
